<svg width="48" height="29" viewBox="0 0 48 29" fill="none" xmlns="http://www.w3.org/2000/svg">
<path d="M15.4594 19.3054H17.0194L16.2272 16.7854L15.4594 19.3054Z" fill="#231F20"/>
<path d="M10.9603 17.062H10.4259V18.4685C10.4259 18.4685 11.1244 18.473 11.3278 18.3772C11.4408 18.3195 11.5348 18.2321 11.5993 18.125C11.6638 18.0179 11.6961 17.8953 11.6925 17.7712C11.6925 17.1907 11.1563 17.062 10.9603 17.062Z" fill="#231F20"/>
<path d="M22.5318 12.221H24.5925L23.5462 8.89331L22.5318 12.221Z" fill="#231F20"/>
<path d="M17.0944 12.0193C16.8933 11.9573 16.6825 11.9307 16.4719 11.9408H15.4237V13.2679H16.4719C16.6763 13.2754 16.8804 13.2445 17.0728 13.1766C17.1998 13.1322 17.3083 13.0485 17.3819 12.9385C17.4556 12.8284 17.4902 12.6979 17.4806 12.5669C17.4882 12.4468 17.4543 12.3276 17.3844 12.2284C17.3144 12.1291 17.2123 12.0555 17.0944 12.0193Z" fill="#231F20"/>
<path d="M16.7728 10.319C16.8752 10.2781 16.9616 10.2065 17.0194 10.1146C17.0772 10.0227 17.1034 9.91528 17.0944 9.80788C17.1034 9.70552 17.078 9.60307 17.0218 9.51609C16.9656 9.42911 16.8818 9.36236 16.7831 9.32598C16.6067 9.26957 16.421 9.24604 16.2356 9.25661H15.4237V10.3874H16.2356C16.4174 10.3959 16.5993 10.3727 16.7728 10.319Z" fill="#231F20"/>
<path d="M41.566 17.062H41.0325V18.4685C41.0325 18.4685 41.731 18.473 41.9335 18.3772C42.0467 18.3198 42.1411 18.2325 42.2057 18.1253C42.2704 18.0182 42.3027 17.8954 42.2991 17.7712C42.2991 17.1907 41.7647 17.062 41.566 17.062Z" fill="#231F20"/>
<path d="M45.7416 1.89609e-07H2.25844C1.96182 -0.000119756 1.66809 0.056669 1.39403 0.167121C1.11996 0.277573 0.870946 0.439522 0.661206 0.643712C0.451467 0.847903 0.285116 1.09033 0.171663 1.35714C0.0582091 1.62395 -0.000123011 1.90992 1.94762e-07 2.19868V26.8013C1.94762e-07 27.3844 0.237942 27.9437 0.661481 28.356C1.08502 28.7684 1.65946 29 2.25844 29H45.7416C46.3405 29 46.915 28.7684 47.3385 28.356C47.7621 27.9437 48 27.3844 48 26.8013V2.19868C48.0001 1.90992 47.9418 1.62395 47.8283 1.35714C47.7149 1.09033 47.5485 0.847903 47.3388 0.643712C47.1291 0.439522 46.88 0.277573 46.606 0.167121C46.3319 0.056669 46.0382 -0.000119756 45.7416 1.89609e-07ZM3.61969 7.62466H11.9222V9.07767H3.61969V7.62466ZM3.61969 10.3874H11.9222V11.8395H3.61969V10.3874ZM3.61969 13.4239H11.9222V14.8769H3.61969V13.4239ZM8.23594 17.1121H6.99188V21.2704H5.49188V17.1121H4.24125V15.8344H8.23594V17.1121ZM17.6775 21.3334L17.3325 20.3796H15.1622L14.8247 21.3334H13.3612V21.3215H11.6466L10.4278 19.2278V21.3215H8.98594V15.8307H10.83C11.7141 15.8307 12.2634 15.9859 12.5756 16.2232C12.9591 16.5271 13.1484 17.1076 13.1578 17.6461C13.1658 17.9794 13.0614 18.306 12.8606 18.5761C12.6123 18.8457 12.3135 19.0669 11.9803 19.2278L13.3866 21.2749L15.3056 15.8307H17.2209L19.1606 21.3334H17.6775ZM18.7219 14.3211C17.9916 14.8815 17.4375 14.8998 16.0969 14.8998H13.4897V7.62466H16.4062C17.2209 7.62466 17.8753 7.79169 18.3263 8.11661C18.7772 8.44153 19.0341 8.91248 19.0341 9.5322C19.0341 10.3874 18.3778 10.663 17.7366 10.9925C19.0134 11.405 19.38 11.8879 19.38 12.7093C19.3819 13.6065 19.2038 13.9579 18.7219 14.3211ZM25.1503 21.3051H23.7253L21.1247 17.7848L21.1594 21.3051H19.6594V15.8289H21.1472L23.6859 19.2488L23.6512 15.8289H25.1512L25.1503 21.3051ZM25.005 13.6384H22.1391L21.6937 14.8979H19.7606L22.3228 7.62923H24.8541L27.4163 14.8979H25.4606L25.005 13.6384ZM28.0191 21.5223C26.5312 21.5223 25.9294 20.6151 25.9294 20.6151L26.6128 19.6047C26.6128 19.6047 27.1856 20.4197 28.0031 20.3422C28.3472 20.3093 28.5563 20.0684 28.5563 19.8119C28.5563 19.2944 27.7725 19.1173 27.4519 18.9969C26.9831 18.8225 26.1909 18.6811 26.1909 17.4863C26.1909 16.3738 27.1059 15.8289 28.0575 15.8289C28.8394 15.8289 29.7197 16.2597 29.7197 16.2597L29.2706 17.3412C29.2706 17.3412 28.5956 16.9132 28.1512 16.9132C27.8981 16.9132 27.5747 17.0318 27.5747 17.3695C27.5747 17.8761 28.6847 18.013 29.0475 18.18C29.8416 18.5451 29.9981 18.9001 29.9981 19.7571C30 20.4042 29.5219 21.5241 28.0191 21.5241V21.5223ZM28.1128 14.8979V7.65022H30.0816L33.4434 12.1799L33.3975 7.65022H35.3869V14.8998H33.5025L30.0591 10.2386L30.105 14.8998L28.1128 14.8979ZM34.3444 17.019H32.3606V17.992H34.1906V19.0872H32.3606V21.3562H30.8606V15.8252H34.3453L34.3444 17.019ZM38.6025 17.1103H36.5944V17.9984H38.4563V19.1849H36.5944V20.0793H38.6053V21.2704H35.0953V15.8307H38.6053L38.6025 17.1103ZM42.2503 21.3197L41.0316 19.2259V21.3197H39.5925V15.8307H41.4375C42.3216 15.8307 42.8709 15.9859 43.1831 16.2232C43.5666 16.5271 43.7559 17.1076 43.7644 17.6461C43.7731 17.9793 43.669 18.3061 43.4681 18.5761C43.2196 18.8455 42.9209 19.0666 42.5878 19.2278L44.0212 21.3215L42.2503 21.3197ZM41.5069 14.8961L39.0834 11.7236V14.8961H37.0106V7.62466H39.0863V10.8374L41.5828 7.62466H43.8478L41.1009 11.1951L44.1103 14.8979L41.5069 14.8961Z" fill="#231F20"/>
</svg>
